<?xml version="1.0" encoding="UTF-8"?>
<svg id="Calque_2" data-name="Calque 2" xmlns="http://www.w3.org/2000/svg" viewBox="0 0 1200 403.27">
  <defs>
    <style>
      .cls-1 {
        fill: #7d56ff;
      }

      .cls-1, .cls-2 {
        stroke-width: 0px;
      }

      .cls-2 {
        fill: #454556;
      }
    </style>
  </defs>
  <g id="Logo_BP1" data-name="Logo BP1">
    <g>
      <path class="cls-1" d="m321.81,281.07h0l-79.44-79.44h0l-40.74-40.74-40.74,40.74-40.74,40.74,40.74,40.74,40.74-40.74,79.44,79.44c-18.11,11.99-38.33,19.47-59.06,22.42-34.25,4.88-69.91-2.6-99.82-22.42-7.91-5.24-15.42-11.35-22.41-18.33-6.98-6.98-13.09-14.5-18.33-22.41-11.99-18.11-19.47-38.33-22.42-59.06-1.92-13.51-1.92-27.25,0-40.76,2.94-20.73,10.42-40.95,22.42-59.06,5.24-7.91,11.35-15.42,18.33-22.41,6.98-6.98,14.5-13.09,22.41-18.33,18.11-11.99,38.33-19.47,59.06-22.42,13.51-1.92,27.25-1.92,40.76,0,20.73,2.94,40.95,10.42,59.06,22.42l-38.7,38.7,40.74,40.74,38.7-38.7,41.32-41.32c-5.7-7.6-12.01-14.9-18.92-21.82-6.91-6.91-14.21-13.22-21.82-18.92-16.43-12.33-34.33-21.82-53-28.47-43.74-15.56-91.78-15.56-135.52,0-18.67,6.65-36.57,16.14-53,28.47-7.6,5.7-14.9,12.01-21.82,18.92-6.91,6.91-13.22,14.21-18.92,21.82-12.33,16.43-21.82,34.33-28.47,53-15.56,43.74-15.56,91.78,0,135.52,6.65,18.67,16.14,36.57,28.47,53,5.7,7.6,12.01,14.9,18.92,21.82,6.91,6.91,14.21,13.22,21.82,18.92,54.94,41.2,126.1,50.67,188.52,28.47,18.67-6.65,36.57-16.14,53-28.47,7.6-5.7,14.9-12.01,21.82-18.92,6.91-6.91,13.22-14.21,18.92-21.82l-41.32-41.32Z"/>
      <g>
        <path class="cls-2" d="m605.8,58.46v7.1c0,14.2-4.69,25.82-14.06,34.85-9.37,9.03-21.6,13.54-36.69,13.54-15.98,0-29.17-5.18-39.58-15.54-10.41-10.36-15.61-23.08-15.61-38.17s5.2-27.69,15.61-38.1c10.41-10.41,23.3-15.61,38.69-15.61,9.67,0,18.49,2.22,26.48,6.66,7.99,4.44,14.2,10.41,18.64,17.9l-14.65,8.43c-2.76-4.93-6.86-8.9-12.28-11.91-5.43-3.01-11.49-4.51-18.2-4.51-10.85,0-19.78,3.55-26.78,10.65-7.01,7.1-10.5,15.98-10.5,26.63s3.53,19.48,10.58,26.49c7.05,7,16.3,10.5,27.74,10.5,9.17,0,16.65-2.15,22.42-6.44,5.77-4.29,9.44-10.04,11.02-17.24h-34.62v-15.24h51.79Z"/>
        <path class="cls-2" d="m678.89,38.04h15.98v73.98h-15.98v-10.65c-6.02,8.39-14.65,12.58-25.89,12.58-10.16,0-18.84-3.77-26.04-11.32-7.2-7.55-10.8-16.74-10.8-27.6s3.6-20.17,10.8-27.67c7.2-7.5,15.88-11.24,26.04-11.24,11.25,0,19.88,4.14,25.89,12.43v-10.5Zm-40.1,53.93c4.44,4.49,10.01,6.73,16.72,6.73s12.28-2.24,16.72-6.73c4.44-4.49,6.66-10.13,6.66-16.94s-2.22-12.45-6.66-16.94c-4.44-4.49-10.01-6.73-16.72-6.73s-12.28,2.24-16.72,6.73c-4.44,4.49-6.66,10.13-6.66,16.94s2.22,12.46,6.66,16.94Z"/>
        <path class="cls-2" d="m794.3,36.12c8.38,0,15.14,2.71,20.27,8.14,5.13,5.43,7.69,12.73,7.69,21.9v45.87h-15.98v-44.83c0-5.13-1.28-9.1-3.85-11.91-2.57-2.81-6.07-4.22-10.5-4.22-4.93,0-8.85,1.63-11.76,4.88-2.91,3.26-4.36,8.14-4.36,14.65v41.43h-15.98v-44.83c0-5.13-1.21-9.1-3.62-11.91-2.42-2.81-5.84-4.22-10.28-4.22-4.83,0-8.78,1.65-11.84,4.96-3.06,3.31-4.59,8.16-4.59,14.57v41.43h-15.98V38.04h15.98v8.88c4.73-7.2,11.79-10.8,21.16-10.8s16.47,3.9,21.01,11.69c4.93-7.79,12.48-11.69,22.64-11.69Z"/>
        <path class="cls-2" d="m852.01,81.84c1.18,5.62,3.9,9.94,8.14,12.95,4.24,3.01,9.42,4.51,15.54,4.51,8.48,0,14.84-3.06,19.09-9.17l13.17,7.69c-7.3,10.75-18.1,16.13-32.4,16.13-12.04,0-21.75-3.67-29.15-11.02-7.4-7.35-11.1-16.65-11.1-27.89s3.65-20.29,10.95-27.74c7.3-7.45,16.67-11.17,28.11-11.17,10.85,0,19.75,3.8,26.71,11.39,6.95,7.6,10.43,16.82,10.43,27.67,0,1.68-.2,3.9-.59,6.66h-58.89Zm-.15-13.02h43.5c-1.09-6.02-3.58-10.55-7.47-13.61-3.9-3.06-8.46-4.59-13.69-4.59-5.92,0-10.85,1.63-14.8,4.88-3.95,3.26-6.46,7.69-7.55,13.32Z"/>
        <path class="cls-2" d="m936.94,58.36c0,2.44,1.37,4.36,4.1,5.77,2.73,1.41,6.01,2.71,9.84,3.89,3.83,1.18,7.75,2.39,11.76,3.63,4.02,1.24,7.37,3.53,10.06,6.87,2.69,3.34,4.04,7.56,4.04,12.65,0,7.1-2.74,12.68-8.21,16.72-5.47,4.05-12.35,6.07-20.64,6.07-7.3,0-13.56-1.53-18.79-4.59-5.23-3.06-9.03-7.3-11.39-12.73l13.76-7.99c2.56,7.1,8.04,10.65,16.42,10.65s12.58-2.76,12.58-8.29c0-2.37-1.36-4.29-4.07-5.77-2.71-1.48-5.98-2.81-9.81-3.99-3.83-1.18-7.75-2.39-11.76-3.63-4.02-1.23-7.38-3.46-10.09-6.66-2.71-3.21-4.07-7.27-4.07-12.21,0-6.81,2.59-12.28,7.77-16.42,5.18-4.14,11.62-6.21,19.31-6.21,6.12,0,11.56,1.36,16.35,4.07,4.78,2.71,8.46,6.49,11.02,11.32l-13.46,7.55c-2.57-5.62-7.2-8.43-13.91-8.43-3.06,0-5.62.66-7.69,1.97-2.07,1.32-3.11,3.24-3.11,5.77Z"/>
      </g>
      <g>
        <path class="cls-1" d="m446.89,248.3l-7.31-20.86h-44.04l-7.24,20.86h-18.49l37.58-103.57h20.42l37.44,103.57h-18.35Zm-45.72-36.84h32.82l-16.37-46.76-16.45,46.76Z"/>
        <path class="cls-1" d="m508.29,250.22c-11.15,0-20.44-3.75-27.89-11.25-7.45-7.5-11.17-16.72-11.17-27.67s3.72-20.29,11.17-27.74c7.45-7.45,16.74-11.17,27.89-11.17,7.2,0,13.76,1.73,19.68,5.18,5.92,3.45,10.36,8.09,13.32,13.91l-13.76,7.99c-1.68-3.55-4.22-6.34-7.62-8.36-3.4-2.02-7.32-3.03-11.76-3.03-6.51,0-11.96,2.22-16.35,6.66-4.39,4.44-6.58,9.96-6.58,16.57s2.19,12.13,6.58,16.57c4.39,4.44,9.84,6.66,16.35,6.66,4.34,0,8.26-1.04,11.76-3.11,3.5-2.07,6.14-4.83,7.92-8.29l13.76,7.84c-3.16,5.92-7.69,10.6-13.61,14.06-5.92,3.45-12.48,5.18-19.68,5.18Z"/>
        <path class="cls-1" d="m586.86,250.22c-11.15,0-20.44-3.75-27.89-11.25-7.45-7.5-11.17-16.72-11.17-27.67s3.72-20.29,11.17-27.74c7.45-7.45,16.74-11.17,27.89-11.17,7.2,0,13.76,1.73,19.68,5.18,5.92,3.45,10.36,8.09,13.32,13.91l-13.76,7.99c-1.68-3.55-4.22-6.34-7.62-8.36-3.4-2.02-7.32-3.03-11.76-3.03-6.51,0-11.96,2.22-16.35,6.66-4.39,4.44-6.58,9.96-6.58,16.57s2.19,12.13,6.58,16.57c4.39,4.44,9.84,6.66,16.35,6.66,4.34,0,8.26-1.04,11.76-3.11,3.5-2.07,6.14-4.83,7.92-8.29l13.76,7.84c-3.16,5.92-7.69,10.6-13.61,14.06-5.92,3.45-12.48,5.18-19.68,5.18Z"/>
        <path class="cls-1" d="m643.09,218.12c1.18,5.62,3.9,9.94,8.14,12.95,4.24,3.01,9.42,4.51,15.54,4.51,8.48,0,14.84-3.06,19.09-9.17l13.17,7.69c-7.3,10.75-18.1,16.13-32.4,16.13-12.04,0-21.75-3.67-29.15-11.02-7.4-7.35-11.1-16.65-11.1-27.89s3.65-20.29,10.95-27.74c7.3-7.45,16.67-11.17,28.11-11.17,10.85,0,19.75,3.8,26.71,11.39,6.95,7.6,10.43,16.82,10.43,27.67,0,1.68-.2,3.9-.59,6.66h-58.89Zm-.15-13.02h43.5c-1.09-6.02-3.58-10.55-7.47-13.61-3.9-3.06-8.46-4.59-13.69-4.59-5.92,0-10.85,1.63-14.8,4.88-3.95,3.26-6.46,7.69-7.55,13.32Z"/>
        <path class="cls-1" d="m728.02,194.64c0,2.44,1.37,4.36,4.1,5.77,2.73,1.41,6.01,2.71,9.84,3.89,3.83,1.18,7.75,2.39,11.76,3.63,4.02,1.24,7.37,3.53,10.06,6.87,2.69,3.34,4.04,7.56,4.04,12.65,0,7.1-2.74,12.68-8.21,16.72-5.47,4.05-12.35,6.07-20.64,6.07-7.3,0-13.56-1.53-18.79-4.59-5.23-3.06-9.03-7.3-11.39-12.73l13.76-7.99c2.56,7.1,8.04,10.65,16.42,10.65s12.58-2.76,12.58-8.29c0-2.37-1.36-4.29-4.07-5.77-2.71-1.48-5.98-2.81-9.81-3.99-3.83-1.18-7.75-2.39-11.76-3.63-4.02-1.23-7.38-3.46-10.09-6.66-2.71-3.21-4.07-7.27-4.07-12.21,0-6.81,2.59-12.28,7.77-16.42,5.18-4.14,11.62-6.21,19.31-6.21,6.12,0,11.56,1.36,16.35,4.07,4.78,2.71,8.46,6.49,11.02,11.32l-13.46,7.55c-2.57-5.62-7.2-8.43-13.91-8.43-3.06,0-5.62.66-7.69,1.97-2.07,1.32-3.11,3.24-3.11,5.77Z"/>
        <path class="cls-1" d="m791.79,194.64c0,2.44,1.37,4.36,4.1,5.77,2.73,1.41,6.01,2.71,9.84,3.89,3.83,1.18,7.75,2.39,11.76,3.63,4.02,1.24,7.37,3.53,10.06,6.87,2.69,3.34,4.04,7.56,4.04,12.65,0,7.1-2.74,12.68-8.21,16.72-5.47,4.05-12.35,6.07-20.64,6.07-7.3,0-13.56-1.53-18.79-4.59-5.23-3.06-9.03-7.3-11.39-12.73l13.76-7.99c2.56,7.1,8.04,10.65,16.42,10.65s12.58-2.76,12.58-8.29c0-2.37-1.36-4.29-4.07-5.77-2.71-1.48-5.98-2.81-9.81-3.99-3.83-1.18-7.75-2.39-11.76-3.63-4.02-1.23-7.38-3.46-10.09-6.66-2.71-3.21-4.07-7.27-4.07-12.21,0-6.81,2.59-12.28,7.77-16.42,5.18-4.14,11.62-6.21,19.31-6.21,6.12,0,11.56,1.36,16.35,4.07,4.78,2.71,8.46,6.49,11.02,11.32l-13.46,7.55c-2.57-5.62-7.2-8.43-13.91-8.43-3.06,0-5.62.66-7.69,1.97-2.07,1.32-3.11,3.24-3.11,5.77Z"/>
        <path class="cls-1" d="m859.92,160.19c-2.02,2.02-4.42,3.03-7.18,3.03s-5.16-1.01-7.18-3.03c-2.02-2.02-3.03-4.41-3.03-7.18s.99-5.15,2.96-7.18c1.97-2.02,4.39-3.03,7.25-3.03s5.28,1.01,7.25,3.03c1.97,2.02,2.96,4.42,2.96,7.18s-1.01,5.16-3.03,7.18Zm-15.17,88.11v-73.98h15.98v73.98h-15.98Z"/>
        <path class="cls-1" d="m921.1,172.4c10.16,0,18.84,3.75,26.04,11.24,7.2,7.5,10.8,16.72,10.8,27.67s-3.6,20.05-10.8,27.6c-7.2,7.55-15.88,11.32-26.04,11.32-11.25,0-19.88-4.19-25.89-12.58v10.65h-15.98v-103.57h15.98v40.1c6.02-8.29,14.65-12.43,25.89-12.43Zm-19.24,55.86c4.44,4.49,10.01,6.73,16.72,6.73s12.28-2.24,16.72-6.73c4.44-4.49,6.66-10.13,6.66-16.94s-2.22-12.45-6.66-16.94c-4.44-4.49-10.01-6.73-16.72-6.73s-12.28,2.24-16.72,6.73c-4.44,4.49-6.66,10.13-6.66,16.94s2.22,12.46,6.66,16.94Z"/>
        <path class="cls-1" d="m987.61,160.19c-2.02,2.02-4.42,3.03-7.18,3.03s-5.16-1.01-7.18-3.03c-2.02-2.02-3.03-4.41-3.03-7.18s.99-5.15,2.96-7.18c1.97-2.02,4.39-3.03,7.25-3.03s5.28,1.01,7.25,3.03c1.97,2.02,2.96,4.42,2.96,7.18s-1.01,5.16-3.03,7.18Zm-15.17,88.11v-73.98h15.98v73.98h-15.98Z"/>
        <path class="cls-1" d="m1006.92,248.3v-108.01h15.98v108.01h-15.98Z"/>
        <path class="cls-1" d="m1056.56,160.19c-2.02,2.02-4.42,3.03-7.18,3.03s-5.16-1.01-7.18-3.03c-2.02-2.02-3.03-4.41-3.03-7.18s.99-5.15,2.96-7.18c1.97-2.02,4.39-3.03,7.25-3.03s5.28,1.01,7.25,3.03c1.97,2.02,2.96,4.42,2.96,7.18s-1.01,5.16-3.03,7.18Zm-15.17,88.11v-73.98h15.98v73.98h-15.98Z"/>
        <path class="cls-1" d="m1117.14,189.71h-18.35v35.51c0,3.06.69,5.25,2.07,6.58,1.38,1.33,3.43,2.07,6.14,2.22,2.71.15,6.09.12,10.14-.08v14.35c-12.23,1.48-21.01.42-26.34-3.18-5.33-3.6-7.99-10.23-7.99-19.9v-35.51h-13.61v-15.39h13.61v-15.98l15.98-4.73v20.71h18.35v15.39Z"/>
        <path class="cls-1" d="m1182.98,174.32h17.02l-28.41,76.35c-7.1,19.13-19.14,28.21-36.1,27.23v-14.94c5.03.3,9.07-.76,12.13-3.18,3.06-2.42,5.57-6.19,7.55-11.32l.74-1.48-31.37-72.65h17.46l22.06,53.7,18.93-53.7Z"/>
      </g>
      <g>
        <path class="cls-2" d="m561.26,291.25h17.02v103.57h-17.02v-44.83h-44.39v44.83h-17.02v-103.57h17.02v42.47h44.39v-42.47Z"/>
        <path class="cls-2" d="m647.82,320.84h15.98v73.98h-15.98v-9.47c-4.83,7.6-12.48,11.39-22.93,11.39-8.48,0-15.34-2.71-20.57-8.14-5.23-5.42-7.84-12.87-7.84-22.34v-45.42h15.98v43.8c0,5.52,1.48,9.76,4.44,12.72,2.96,2.96,7,4.44,12.13,4.44,5.62,0,10.16-1.75,13.61-5.25,3.45-3.5,5.18-8.85,5.18-16.05v-39.65Z"/>
        <path class="cls-2" d="m724.32,318.92c10.16,0,18.84,3.75,26.04,11.24,7.2,7.5,10.8,16.72,10.8,27.67s-3.6,20.05-10.8,27.6c-7.2,7.55-15.88,11.32-26.04,11.32-11.25,0-19.88-4.19-25.89-12.58v10.65h-15.98v-103.57h15.98v40.1c6.02-8.29,14.65-12.43,25.89-12.43Zm-19.24,55.86c4.44,4.49,10.01,6.73,16.72,6.73s12.28-2.24,16.72-6.73c4.44-4.49,6.66-10.13,6.66-16.94s-2.22-12.45-6.66-16.94c-4.44-4.49-10.01-6.73-16.72-6.73s-12.28,2.24-16.72,6.73c-4.44,4.49-6.66,10.13-6.66,16.94s2.22,12.46,6.66,16.94Z"/>
      </g>
    </g>
  </g>
</svg>